Coordinates
version=1
nRows=33
nColumns=33
inDegrees=yes

Units are S.I. units (second, meters, Newtons, ...)
Angles are in degrees.

endheader
time	ground_thorax_rot_x	ground_thorax_rot_y	ground_thorax_rot_z	ground_thorax_tx	ground_thorax_ty	ground_thorax_tz	clav_prot_r	clav_elev_r	scapula_abduction_r	scapula_elevation_r	scapula_upward_rot_r	scapula_winging_r	shoulder_elv_r	plane_of_elev_r	axial_rot_r	elbow_flexion_r	pro_sup_r	wrist_flex_r	wrist_dev_r	clav_prot_l	clav_elev_l	scapula_abduction_l	scapula_elevation_l	scapula_upward_rot_l	scapula_winging_l	shoulder_elv_l	plane_of_elev_l	axial_rot_l	elbow_flexion_l	pro_sup_l	wrist_flex_l	wrist_dev_l	
5.4400	-21.570506	-35.633259	50.915660	1.778764	833.105464	-46.654620	27.261922	-45.000000	41.166801	-45.000000	-44.709101	3490.593388	-457.739459	147.118344	-180.000000	2519.879837	57.550674	32.084344	17.795273	-3.064669	33.059902	-29.331280	-45.000000	-45.000000	2249.155865	-7122.203328	27.800460	52.345711	2869.485829	40.815303	15.028275	-18.701059	
5.4500	-21.015654	-35.939336	51.832850	4.845661	831.427098	-46.472599	27.183364	-45.000000	41.205665	-45.000000	-44.481199	3490.450579	-457.971234	147.022817	-180.000000	2519.618278	57.079681	31.730885	18.167329	-3.088758	33.032238	-29.236906	-45.000000	-45.000000	2249.125850	-7122.236349	27.759931	52.289698	2869.443963	40.899226	15.043288	-18.450134	
5.4600	-20.436324	-36.260959	52.798642	7.958279	829.651536	-46.285452	27.066194	-45.000000	41.267145	-45.000000	-44.064308	3490.207567	-458.237240	146.892973	-180.000000	2519.268405	56.619010	31.320249	18.539296	-3.109181	33.008371	-29.137528	-45.000000	-45.000000	2249.103767	-7122.282855	27.708261	52.139287	2869.411957	40.986939	15.044147	-18.198615	
5.4700	-19.832648	-36.598718	53.808317	11.112120	827.784684	-46.096519	26.902431	-45.000000	41.373732	-45.000000	-43.353006	3489.819197	-458.551997	146.709134	-180.000000	2518.798029	56.175709	30.839136	18.910100	-3.133038	32.988789	-29.027892	-45.000000	-45.000000	2249.092045	-7122.338723	27.647069	51.907532	2869.388405	41.075524	15.029459	-17.948259	
5.4800	-19.234804	-36.936053	54.817594	14.301915	825.833430	-45.909826	26.672509	-45.000000	41.565749	-45.000000	-42.104260	3489.205356	-458.932491	146.444755	-180.000000	2518.146185	55.746765	30.253302	19.283306	-3.150565	32.974198	-28.921000	-45.000000	-45.000000	2249.083901	-7122.403923	27.581812	51.632916	2869.368689	41.165134	14.998091	-17.699997	
5.4900	-18.625683	-37.280862	55.845013	17.521840	823.804338	-45.730225	26.382349	-45.000000	41.846044	-45.000000	-40.367646	3488.344614	-459.384034	146.074340	-180.000000	2517.319584	55.348975	29.575952	19.648285	-3.182958	32.968415	-28.796614	-45.000000	-45.000000	2249.093948	-7122.476724	27.528012	51.301243	2869.351881	41.255168	14.956386	-17.465675	
5.5000	-18.016185	-37.621121	56.871943	20.766342	821.706162	-45.557046	26.039241	-45.000000	42.199030	-45.000000	-38.245477	3487.275736	-459.889475	145.614766	-180.000000	2516.361061	54.991960	28.814221	19.982110	-3.221916	32.967685	-28.660332	-45.000000	-45.000000	2249.111760	-7122.555677	27.484009	50.926685	2869.334010	41.348246	14.904700	-17.243310	
5.5100	-17.363620	-37.977425	57.952398	24.028958	819.549883	-45.385077	25.677369	-45.000000	42.586019	-45.000000	-36.101045	3486.103680	-460.422313	145.098854	-180.000000	2515.368554	54.707786	28.026095	20.257674	-3.301039	32.960959	-28.492314	-45.000000	-45.000000	2249.141953	-7122.634568	27.433746	50.496420	2869.317167	41.444361	14.850977	-17.040339	
5.5200	-16.706289	-38.322262	59.031055	27.302112	817.350162	-45.203545	25.318436	-45.000000	42.960295	-45.000000	-34.103875	3484.943977	-460.945932	144.587627	-180.000000	2514.422641	54.504379	27.234317	20.446366	-3.386610	32.941232	-28.319475	-45.000000	-45.000000	2249.161793	-7122.715717	27.367562	50.039873	2869.300015	41.546319	14.791509	-16.848651	
5.5300	-16.035957	-38.659120	60.115862	30.576849	815.122106	-45.002957	25.016080	-45.000000	43.259042	-45.000000	-32.579355	3483.926560	-461.427528	144.124771	-180.000000	2513.619715	54.409257	26.507329	20.529248	-3.487804	32.910601	-28.129261	-45.000000	-45.000000	2249.173398	-7122.798349	27.292352	49.548978	2869.283873	41.654130	14.726443	-16.671385	
5.5400	-15.383562	-38.967884	61.163855	33.843396	812.881706	-44.775099	24.779965	-45.000000	43.456691	-45.000000	-31.553996	3483.119970	-461.845879	143.753211	-180.000000	2512.988287	54.427407	25.852149	20.496513	-3.580261	32.862490	-27.945139	-45.000000	-45.000000	2249.153340	-7122.877966	27.191563	49.056569	2869.265802	41.769879	14.647647	-16.496827	
5.5500	-14.758292	-39.247101	62.163752	37.091726	810.643127	-44.517917	24.620848	-45.000000	43.545185	-45.000000	-31.008231	3482.538300	-462.200599	143.478409	-180.000000	2512.522625	54.564618	25.285547	20.357952	-3.663831	32.802504	-27.767116	-45.000000	-45.000000	2249.106050	-7122.956504	27.071951	48.567681	2869.249369	41.892459	14.551145	-16.327383	
5.5600	-14.184688	-39.484941	63.088491	40.312374	808.418945	-44.234700	24.517362	-45.000000	43.552812	-45.000000	-30.714537	3482.119018	-462.506424	143.285895	-180.000000	2512.166181	54.803084	24.775731	20.129596	-3.726903	32.733615	-27.609023	-45.000000	-45.000000	2249.024470	-7123.028157	26.931701	48.093740	2869.233605	42.022962	14.430187	-16.159465	
5.5700	-13.643034	-39.694356	63.964747	43.496745	806.219274	-43.934815	24.481545	-45.000000	43.500528	-45.000000	-30.633041	3481.818209	-462.773447	143.145846	-180.000000	2511.887432	55.136607	24.339358	19.846730	-3.785422	32.673233	-27.448536	-45.000000	-45.000000	2248.937381	-7123.102798	26.800393	47.600404	2869.223458	42.161591	14.290638	-16.006767	
5.5800	-13.118432	-39.883468	64.818736	46.636936	804.054470	-43.628636	24.485717	-45.000000	43.405085	-45.000000	-30.712533	3481.603190	-463.009022	143.049069	-180.000000	2511.669961	55.542412	23.955032	19.519829	-3.847040	32.612758	-27.289092	-45.000000	-45.000000	2248.845725	-7123.170833	26.660850	47.069379	2869.218572	42.311176	14.134055	-15.870617	
5.5900	-12.613957	-40.051230	65.638855	49.725370	801.935976	-43.325822	24.529613	-45.000000	43.283034	-45.000000	-30.909438	3481.457075	-463.214975	142.983172	-180.000000	2511.494201	55.997206	23.625047	19.182338	-3.904216	32.562370	-27.126382	-45.000000	-45.000000	2248.764123	-7123.245414	26.533007	46.506587	2869.223966	42.474174	13.964844	-15.757903	
5.6000	-12.128196	-40.199284	66.428365	52.754513	799.876436	-43.034666	24.593966	-45.000000	43.143897	-45.000000	-31.186621	3481.362570	-463.395716	142.942846	-180.000000	2511.354962	56.475215	23.333502	18.841891	-3.957121	32.512719	-26.965091	-45.000000	-45.000000	2248.687867	-7123.317489	26.405966	45.916157	2869.237705	42.654521	13.785731	-15.668932	
5.6100	-11.681241	-40.321887	67.155854	55.716114	797.889948	-42.761630	24.686565	-45.000000	42.988759	-45.000000	-31.508455	3481.318293	-463.552366	142.922662	-180.000000	2511.242692	56.956898	23.078831	18.517692	-3.996595	32.473582	-26.808784	-45.000000	-45.000000	2248.620766	-7123.395707	26.295840	45.313725	2869.263160	42.854358	13.594889	-15.604364	
5.6200	-11.272669	-40.421707	67.826508	58.600711	795.993087	-42.510174	24.782180	-45.000000	42.819529	-45.000000	-31.862064	3481.318309	-463.686623	142.922235	-180.000000	2511.159767	57.432083	22.847993	18.202770	-4.023384	32.431448	-26.663316	-45.000000	-45.000000	2248.552267	-7123.466967	26.186629	44.710627	2869.295823	43.075778	13.395174	-15.558809	
5.6300	-10.914545	-40.495783	68.424467	61.397727	794.202075	-42.281764	24.885211	-45.000000	42.636146	-45.000000	-32.234563	3481.366607	-463.796293	142.941906	-180.000000	2511.105208	57.902609	22.639760	17.899256	-4.034018	32.391756	-26.534215	-45.000000	-45.000000	2248.481292	-7123.535907	26.082546	44.117721	2869.336707	43.318271	13.184597	-15.528277	
5.6400	-10.613080	-40.544251	68.944901	64.095633	792.532354	-42.075836	24.988334	-45.000000	42.441360	-45.000000	-32.615629	3481.460084	-463.881234	142.981983	-180.000000	2511.081844	58.379361	22.457957	17.602370	-4.027420	32.350618	-26.423201	-45.000000	-45.000000	2248.404327	-7123.597383	25.983410	43.547052	2869.385442	43.580901	12.968045	-15.509496	
5.6500	-10.364741	-40.571672	69.396528	66.682706	790.995139	-41.891636	25.092709	-45.000000	42.240281	-45.000000	-33.006244	3481.594775	-463.944896	143.043539	-180.000000	2511.090081	58.877250	22.302704	17.306726	-4.009442	32.310217	-26.329430	-45.000000	-45.000000	2248.319963	-7123.648028	25.885526	42.996879	2869.444170	43.860833	12.743102	-15.499657	
5.6600	-10.154630	-40.582260	69.797203	69.147481	789.598000	-41.727982	25.200109	-45.000000	42.041501	-45.000000	-33.408188	3481.760545	-463.989608	143.120539	-180.000000	2511.128395	59.412130	22.181847	17.012147	-3.982305	32.274341	-26.242601	-45.000000	-45.000000	2248.236402	-7123.687277	25.798133	42.465891	2869.511319	44.156582	12.515976	-15.494908	
5.6700	-9.972502	-40.583022	70.160364	71.480017	788.341530	-41.585088	25.311610	-45.000000	41.848913	-45.000000	-33.826909	3481.950828	-464.018682	143.207468	-180.000000	2511.195858	59.989749	22.094354	16.717201	-3.954299	32.241187	-26.161507	-45.000000	-45.000000	2248.153765	-7123.714266	25.714667	41.946824	2869.586640	44.465311	12.289029	-15.496437	
5.6800	-9.789679	-40.579747	70.519577	73.671834	787.222102	-41.463543	25.430819	-45.000000	41.673178	-45.000000	-34.274017	3482.152625	-464.033005	143.295175	-180.000000	2511.283594	60.607807	22.042200	16.429745	-3.928563	32.220214	-26.069829	-45.000000	-45.000000	2248.084875	-7123.732817	25.643198	41.434263	2869.671390	44.785363	12.064970	-15.500347	
5.6900	-9.590587	-40.580719	70.899642	75.716262	786.231838	-41.364609	25.558483	-45.000000	41.513420	-45.000000	-34.762628	3482.356452	-464.036928	143.378355	-180.000000	2511.388798	61.250126	22.014453	16.146509	-3.921182	32.202291	-25.971457	-45.000000	-45.000000	2248.030011	-7123.740479	25.565493	40.908946	2869.765252	45.114307	11.847727	-15.511654	
5.7000	-9.347070	-40.591811	71.332286	77.607987	785.361950	-41.288727	25.698999	-45.000000	41.378613	-45.000000	-35.301380	3482.553551	-464.029261	143.452041	-180.000000	2511.500878	61.899313	22.010752	15.879670	-3.928012	32.203474	-25.851031	-45.000000	-45.000000	2248.006407	-7123.744009	25.492508	40.364297	2869.870183	45.450268	11.635311	-15.522896	
5.7100	-9.086740	-40.607310	71.781763	79.343591	784.601764	-41.236124	25.852828	-45.000000	41.261111	-45.000000	-35.870120	3482.739466	-464.012613	143.508880	-180.000000	2511.614534	62.533104	22.035088	15.637502	-3.961076	32.204641	-25.741403	-45.000000	-45.000000	2248.016450	-7123.756308	25.417414	39.811084	2869.982330	45.790204	11.450535	-15.556051	
5.7200	-8.821324	-40.622019	72.231883	80.921148	783.940697	-41.206176	26.002770	-45.000000	41.163229	-45.000000	-36.428086	3482.915534	-463.984654	143.563849	-180.000000	2511.723188	63.135431	22.076034	15.422203	-3.992917	32.220376	-25.647205	-45.000000	-45.000000	2248.057825	-7123.777286	25.346326	39.281789	2870.097652	46.133675	11.279086	-15.591165	
5.7300	-8.599019	-40.624898	72.617916	82.340367	783.368107	-41.197672	26.144273	-45.000000	41.077226	-45.000000	-36.932749	3483.074694	-463.956820	143.609402	-180.000000	2511.823645	63.692956	22.132698	15.234409	-4.032236	32.229580	-25.587395	-45.000000	-45.000000	2248.113038	-7123.807949	25.281526	38.799504	2870.211047	46.477965	11.137366	-15.644065	
5.7400	-8.422521	-40.617110	72.932886	83.602530	782.873558	-41.208837	26.257298	-45.000000	41.007423	-45.000000	-37.347498	3483.221874	-463.927603	143.661695	-180.000000	2511.915038	64.199462	22.189280	15.068379	-4.045635	32.249121	-25.546273	-45.000000	-45.000000	2248.168534	-7123.834276	25.228058	38.389569	2870.317808	46.820946	11.000606	-15.685930	
5.7500	-8.328970	-40.589780	73.126685	84.710811	782.446656	-41.237511	26.347188	-45.000000	40.943532	-45.000000	-37.658210	3483.350622	-463.906290	143.704213	-180.000000	2511.995524	64.651335	22.251373	14.926022	-4.052700	32.256916	-25.535216	-45.000000	-45.000000	2248.210700	-7123.858865	25.190845	38.061889	2870.414640	47.156843	10.889940	-15.738516	
5.7600	-8.287481	-40.550624	73.238951	85.670908	782.077072	-41.281246	26.400117	-45.000000	40.893600	-45.000000	-37.862644	3483.468570	-463.882010	143.754876	-180.000000	2512.064572	65.050434	22.303780	14.800689	-4.022933	32.275211	-25.527919	-45.000000	-45.000000	2248.233980	-7123.868066	25.167034	37.819284	2870.500895	47.481520	10.775561	-15.771102	
